<?xml version="1.0" encoding="utf-8"?>
<svg viewBox="-77.303 -152.546 803.029 679.344" xmlns="http://www.w3.org/2000/svg">
  <rect x="5.544" y="-66.063" width="632.859" height="504.019" style="stroke: rgb(0, 0, 0); fill: rgb(242, 113, 3);"/>
  <path d="M 715.172 326.425 L 676.882 7.225 C 666.582 -78.715 593.532 -143.545 506.962 -143.545 L 141.252 -143.545 C 54.682 -143.545 -18.368 -78.715 -28.668 7.225 L -66.918 326.425 C -72.738 374.975 -57.478 423.805 -25.008 460.375 C 7.422 496.975 54.092 517.935 103.002 517.935 L 545.252 517.935 C 594.122 517.935 640.792 496.975 673.262 460.375 C 705.692 423.815 720.992 374.985 715.172 326.425 Z M 610.282 404.905 C 592.902 424.485 568.922 435.255 542.782 435.255 L 105.482 435.255 C 79.302 435.255 55.312 424.485 37.982 404.905 C 20.602 385.325 12.782 360.245 15.882 334.255 L 53.702 18.635 C 59.132 -26.655 97.652 -60.865 143.302 -60.865 L 504.922 -60.865 C 550.562 -60.865 589.092 -26.665 594.522 18.635 L 632.382 334.255 C 635.482 360.245 627.612 385.325 610.282 404.905 Z" style="fill: rgb(242, 113, 3);"/>
  <path d="M 543.689 46.414 C 537.669 37.184 528.419 30.854 517.639 28.584 C 506.839 26.314 495.839 28.384 486.609 34.394 C 376.499 106.204 269.339 106.194 159.019 34.384 C 149.789 28.374 138.759 26.304 127.989 28.594 C 117.209 30.874 107.969 37.214 101.959 46.444 C 95.949 55.674 93.889 66.694 96.169 77.474 C 98.449 88.254 104.789 97.494 114.019 103.504 C 182.959 148.384 253.239 171.134 322.909 171.134 C 392.589 171.134 462.819 148.374 531.659 103.484 C 540.889 97.464 547.219 88.214 549.489 77.434 C 551.769 66.664 549.709 55.644 543.689 46.414 Z" style="fill: rgb(255, 255, 255);"/>
</svg>