<svg xmlns="http://www.w3.org/2000/svg" xmlns:xlink="http://www.w3.org/1999/xlink" viewBox="0 0 327 272" width="327" height="272" preserveAspectRatio="xMidYMid meet" style="width: 100%; height: 100%; transform: translate3d(0px, 0px, 0px); content-visibility: visible;"><defs><clipPath id="__lottie_element_128"><rect width="327" height="272" x="0" y="0"></rect></clipPath><clipPath id="__lottie_element_133"><path d="M0,0 L64,0 L64,44 L0,44z"></path></clipPath><clipPath id="__lottie_element_143"><path d="M0,0 L64,0 L64,44 L0,44z"></path></clipPath></defs><g clip-path="url(#__lottie_element_128)"><g fill="rgb(255,136,51)" stroke="rgb(0,0,0)" stroke-width="0.00999999977648" font-size="12" font-family="Inter" font-style="normal" font-weight="700" aria-label="WEEK 4" transform="matrix(1,0,0,1,321.625,267.25)" opacity="1" style="display: block;"><g stroke-linecap="butt" stroke-linejoin="round" stroke-miterlimit="4" transform="matrix(1,0,0,1,-51.51240158081055,0)" opacity="1" style="display: inherit;"><g><g transform="matrix(1,0,0,1,0,0)" opacity="1" style="display: block;"><path d=" M2.67,0 C2.67,0 4.21,0 4.21,0 C4.21,0 5.94,-6.05 5.94,-6.05 C5.94,-6.05 6.01,-6.05 6.01,-6.05 C6.01,-6.05 7.73,0 7.73,0 C7.73,0 9.27,0 9.27,0 C9.27,0 11.71,-8.62 11.71,-8.62 C11.71,-8.62 10.03,-8.62 10.03,-8.62 C10.03,-8.62 8.47,-2.28 8.47,-2.28 C8.47,-2.28 8.4,-2.28 8.4,-2.28 C8.4,-2.28 6.73,-8.62 6.73,-8.62 C6.73,-8.62 5.21,-8.62 5.21,-8.62 C5.21,-8.62 3.55,-2.29 3.55,-2.29 C3.55,-2.29 3.47,-2.29 3.47,-2.29 C3.47,-2.29 1.91,-8.62 1.91,-8.62 C1.91,-8.62 0.23,-8.62 0.23,-8.62 C0.23,-8.62 2.67,0 2.67,0z"></path><g opacity="1" transform="matrix(0.11999999731779099,0,0,0.11999999731779099,0,0)"></g></g></g></g><g stroke-linecap="butt" stroke-linejoin="round" stroke-miterlimit="4" transform="matrix(1,0,0,1,-38.28000259399414,0)" opacity="1" style="display: inherit;"><g><g transform="matrix(1,0,0,1,0,0)" opacity="1" style="display: block;"><path d=" M0.85,0 C0.85,0 6.49,0 6.49,0 C6.49,0 6.49,-1.31 6.49,-1.31 C6.49,-1.31 2.41,-1.31 2.41,-1.31 C2.41,-1.31 2.41,-3.66 2.41,-3.66 C2.41,-3.66 6.17,-3.66 6.17,-3.66 C6.17,-3.66 6.17,-4.97 6.17,-4.97 C6.17,-4.97 2.41,-4.97 2.41,-4.97 C2.41,-4.97 2.41,-7.32 2.41,-7.32 C2.41,-7.32 6.46,-7.32 6.46,-7.32 C6.46,-7.32 6.46,-8.62 6.46,-8.62 C6.46,-8.62 0.85,-8.62 0.85,-8.62 C0.85,-8.62 0.85,0 0.85,0z"></path><g opacity="1" transform="matrix(0.11999999731779099,0,0,0.11999999731779099,0,0)"></g></g></g></g><g stroke-linecap="butt" stroke-linejoin="round" stroke-miterlimit="4" transform="matrix(1,0,0,1,-29.83679962158203,0)" opacity="1" style="display: inherit;"><g><g transform="matrix(1,0,0,1,0,0)" opacity="1" style="display: block;"><path d=" M0.85,0 C0.85,0 6.49,0 6.49,0 C6.49,0 6.49,-1.31 6.49,-1.31 C6.49,-1.31 2.41,-1.31 2.41,-1.31 C2.41,-1.31 2.41,-3.66 2.41,-3.66 C2.41,-3.66 6.17,-3.66 6.17,-3.66 C6.17,-3.66 6.17,-4.97 6.17,-4.97 C6.17,-4.97 2.41,-4.97 2.41,-4.97 C2.41,-4.97 2.41,-7.32 2.41,-7.32 C2.41,-7.32 6.46,-7.32 6.46,-7.32 C6.46,-7.32 6.46,-8.62 6.46,-8.62 C6.46,-8.62 0.85,-8.62 0.85,-8.62 C0.85,-8.62 0.85,0 0.85,0z"></path><g opacity="1" transform="matrix(0.11999999731779099,0,0,0.11999999731779099,0,0)"></g></g></g></g><g stroke-linecap="butt" stroke-linejoin="round" stroke-miterlimit="4" transform="matrix(1,0,0,1,-21.393598556518555,0)" opacity="1" style="display: inherit;"><g><g transform="matrix(1,0,0,1,0,0)" opacity="1" style="display: block;"><path d=" M0.85,0 C0.85,0 2.41,0 2.41,0 C2.41,0 2.41,-2.57 2.41,-2.57 C2.41,-2.57 3.37,-3.7 3.37,-3.7 C3.37,-3.7 5.94,0 5.94,0 C5.94,0 7.82,0 7.82,0 C7.82,0 4.46,-4.75 4.46,-4.75 C4.46,-4.75 7.79,-8.62 7.79,-8.62 C7.79,-8.62 5.88,-8.62 5.88,-8.62 C5.88,-8.62 2.52,-4.66 2.52,-4.66 C2.52,-4.66 2.41,-4.66 2.41,-4.66 C2.41,-4.66 2.41,-8.62 2.41,-8.62 C2.41,-8.62 0.85,-8.62 0.85,-8.62 C0.85,-8.62 0.85,0 0.85,0z"></path><g opacity="1" transform="matrix(0.11999999731779099,0,0,0.11999999731779099,0,0)"></g></g></g></g><g stroke-linecap="butt" stroke-linejoin="round" stroke-miterlimit="4" transform="matrix(1,0,0,1,-12.120001792907715,0)" opacity="1" style="display: inherit;"><g><g style="display: none;"></g></g></g><g stroke-linecap="butt" stroke-linejoin="round" stroke-miterlimit="4" transform="matrix(1,0,0,1,-7.989599704742432,0)" opacity="1" style="display: inherit;"><g><g transform="matrix(1,0,0,1,0,0)" opacity="1" style="display: block;"><path d=" M4.74,-2.88 C4.74,-2.88 2.21,-2.88 2.21,-2.88 C2.21,-2.88 2.21,-2.95 2.21,-2.95 C2.21,-2.95 4.67,-6.86 4.67,-6.86 C4.67,-6.86 4.74,-6.86 4.74,-6.86 C4.74,-6.86 4.74,-2.88 4.74,-2.88z M0.61,-1.6 C0.61,-1.6 4.73,-1.6 4.73,-1.6 C4.73,-1.6 4.73,0 4.73,0 C4.73,0 6.22,0 6.22,0 C6.22,0 6.22,-1.6 6.22,-1.6 C6.22,-1.6 7.32,-1.6 7.32,-1.6 C7.32,-1.6 7.32,-2.88 7.32,-2.88 C7.32,-2.88 6.22,-2.88 6.22,-2.88 C6.22,-2.88 6.22,-8.62 6.22,-8.62 C6.22,-8.62 4.27,-8.62 4.27,-8.62 C4.27,-8.62 0.61,-2.84 0.61,-2.84 C0.61,-2.84 0.61,-1.6 0.61,-1.6z"></path><g opacity="1" transform="matrix(0.11999999731779099,0,0,0.11999999731779099,0,0)"></g></g></g></g></g><g transform="matrix(0.8746299743652344,0,0,0.9071800112724304,394.3304748535156,92.70707702636719)" opacity="1" style="display: block;"><g opacity="1" transform="matrix(1.0000200271606445,0,0,1.2008099555969238,0,-7.5)"><path stroke-linecap="round" stroke-linejoin="round" fill-opacity="0" stroke-dasharray=" 5 10" stroke-dashoffset="0" stroke="rgb(239,126,50)" stroke-opacity="1" stroke-width="4" d=" M-122,-22.562000274658203 C-122,-22.562000274658203 -122,117.375 -122,117.375 C-122,117.375 -122,152.5 -122,152.5"></path></g></g><g fill="rgb(0,102,255)" stroke="rgb(0,0,0)" stroke-width="0.00999999977648" font-size="12" font-family="Inter" font-style="normal" font-weight="700" aria-label="WEEK 1" transform="matrix(1,0,0,1,7.625,267.25)" opacity="1" style="display: block;"><g stroke-linecap="butt" stroke-linejoin="round" stroke-miterlimit="4" transform="matrix(1,0,0,1,0,0)" opacity="1" style="display: inherit;"><g><g transform="matrix(1,0,0,1,0,0)" opacity="1" style="display: block;"><path d=" M2.67,0 C2.67,0 4.21,0 4.21,0 C4.21,0 5.94,-6.05 5.94,-6.05 C5.94,-6.05 6.01,-6.05 6.01,-6.05 C6.01,-6.05 7.73,0 7.73,0 C7.73,0 9.27,0 9.27,0 C9.27,0 11.71,-8.62 11.71,-8.62 C11.71,-8.62 10.03,-8.62 10.03,-8.62 C10.03,-8.62 8.47,-2.28 8.47,-2.28 C8.47,-2.28 8.4,-2.28 8.4,-2.28 C8.4,-2.28 6.73,-8.62 6.73,-8.62 C6.73,-8.62 5.21,-8.62 5.21,-8.62 C5.21,-8.62 3.55,-2.29 3.55,-2.29 C3.55,-2.29 3.47,-2.29 3.47,-2.29 C3.47,-2.29 1.91,-8.62 1.91,-8.62 C1.91,-8.62 0.23,-8.62 0.23,-8.62 C0.23,-8.62 2.67,0 2.67,0z"></path><g opacity="1" transform="matrix(0.11999999731779099,0,0,0.11999999731779099,0,0)"></g></g></g></g><g stroke-linecap="butt" stroke-linejoin="round" stroke-miterlimit="4" transform="matrix(1,0,0,1,13.232399940490723,0)" opacity="1" style="display: inherit;"><g><g transform="matrix(1,0,0,1,0,0)" opacity="1" style="display: block;"><path d=" M0.85,0 C0.85,0 6.49,0 6.49,0 C6.49,0 6.49,-1.31 6.49,-1.31 C6.49,-1.31 2.41,-1.31 2.41,-1.31 C2.41,-1.31 2.41,-3.66 2.41,-3.66 C2.41,-3.66 6.17,-3.66 6.17,-3.66 C6.17,-3.66 6.17,-4.97 6.17,-4.97 C6.17,-4.97 2.41,-4.97 2.41,-4.97 C2.41,-4.97 2.41,-7.32 2.41,-7.32 C2.41,-7.32 6.46,-7.32 6.46,-7.32 C6.46,-7.32 6.46,-8.62 6.46,-8.62 C6.46,-8.62 0.85,-8.62 0.85,-8.62 C0.85,-8.62 0.85,0 0.85,0z"></path><g opacity="1" transform="matrix(0.11999999731779099,0,0,0.11999999731779099,0,0)"></g></g></g></g><g stroke-linecap="butt" stroke-linejoin="round" stroke-miterlimit="4" transform="matrix(1,0,0,1,21.675600051879883,0)" opacity="1" style="display: inherit;"><g><g transform="matrix(1,0,0,1,0,0)" opacity="1" style="display: block;"><path d=" M0.85,0 C0.85,0 6.49,0 6.49,0 C6.49,0 6.49,-1.31 6.49,-1.31 C6.49,-1.31 2.41,-1.31 2.41,-1.31 C2.41,-1.31 2.41,-3.66 2.41,-3.66 C2.41,-3.66 6.17,-3.66 6.17,-3.66 C6.17,-3.66 6.17,-4.97 6.17,-4.97 C6.17,-4.97 2.41,-4.97 2.41,-4.97 C2.41,-4.97 2.41,-7.32 2.41,-7.32 C2.41,-7.32 6.46,-7.32 6.46,-7.32 C6.46,-7.32 6.46,-8.62 6.46,-8.62 C6.46,-8.62 0.85,-8.62 0.85,-8.62 C0.85,-8.62 0.85,0 0.85,0z"></path><g opacity="1" transform="matrix(0.11999999731779099,0,0,0.11999999731779099,0,0)"></g></g></g></g><g stroke-linecap="butt" stroke-linejoin="round" stroke-miterlimit="4" transform="matrix(1,0,0,1,30.11880111694336,0)" opacity="1" style="display: inherit;"><g><g transform="matrix(1,0,0,1,0,0)" opacity="1" style="display: block;"><path d=" M0.85,0 C0.85,0 2.41,0 2.41,0 C2.41,0 2.41,-2.57 2.41,-2.57 C2.41,-2.57 3.37,-3.7 3.37,-3.7 C3.37,-3.7 5.94,0 5.94,0 C5.94,0 7.82,0 7.82,0 C7.82,0 4.46,-4.75 4.46,-4.75 C4.46,-4.75 7.79,-8.62 7.79,-8.62 C7.79,-8.62 5.88,-8.62 5.88,-8.62 C5.88,-8.62 2.52,-4.66 2.52,-4.66 C2.52,-4.66 2.41,-4.66 2.41,-4.66 C2.41,-4.66 2.41,-8.62 2.41,-8.62 C2.41,-8.62 0.85,-8.62 0.85,-8.62 C0.85,-8.62 0.85,0 0.85,0z"></path><g opacity="1" transform="matrix(0.11999999731779099,0,0,0.11999999731779099,0,0)"></g></g></g></g><g stroke-linecap="butt" stroke-linejoin="round" stroke-miterlimit="4" transform="matrix(1,0,0,1,39.392398834228516,0)" opacity="1" style="display: inherit;"><g><g style="display: none;"></g></g></g><g stroke-linecap="butt" stroke-linejoin="round" stroke-miterlimit="4" transform="matrix(1,0,0,1,43.52280044555664,0)" opacity="1" style="display: inherit;"><g><g transform="matrix(1,0,0,1,0,0)" opacity="1" style="display: block;"><path d=" M4.27,-8.62 C4.27,-8.62 2.79,-8.62 2.79,-8.62 C2.79,-8.62 0.64,-7.25 0.64,-7.25 C0.64,-7.25 0.64,-5.82 0.64,-5.82 C0.64,-5.82 2.66,-7.1 2.66,-7.1 C2.66,-7.1 2.71,-7.1 2.71,-7.1 C2.71,-7.1 2.71,0 2.71,0 C2.71,0 4.27,0 4.27,0 C4.27,0 4.27,-8.62 4.27,-8.62z"></path><g opacity="1" transform="matrix(0.11999999731779099,0,0,0.11999999731779099,0,0)"></g></g></g></g></g><g transform="matrix(-1,0,0,-1,-82.25,366.18798828125)" opacity="1" style="display: block;"><g opacity="1" transform="matrix(1,0,0,1,0,0)"><path stroke-linecap="round" stroke-linejoin="round" fill-opacity="0" stroke-dasharray=" 5 10" stroke-dashoffset="0" stroke="rgb(0,102,255)" stroke-opacity="1" stroke-width="3" d=" M-122,152.5 C-122,152.5 -122,121.38700103759766 -122,117.72599792480469"></path></g></g><g transform="matrix(1.1254500150680542,0,0,1.0653400421142578,163.75,155)" opacity="0.1" style="display: block;"><g opacity="1" transform="matrix(1,0,0,1,0,0)"><path fill="rgb(0,0,0)" fill-opacity="1" d=" M139,87.25 C139,87.25 139,87.75 139,87.75 C139,87.88797760009766 138.88796997070312,88 138.75,88 C138.75,88 -138.75,88 -138.75,88 C-138.88796997070312,88 -139,87.88797760009766 -139,87.75 C-139,87.75 -139,87.25 -139,87.25 C-139,87.11202239990234 -138.88796997070312,87 -138.75,87 C-138.75,87 138.75,87 138.75,87 C138.88796997070312,87 139,87.11202239990234 139,87.25z M139,-87.75 C139,-87.75 139,-87.25 139,-87.25 C139,-87.11202239990234 138.88796997070312,-87 138.75,-87 C138.75,-87 -138.75,-87 -138.75,-87 C-138.88796997070312,-87 -139,-87.11202239990234 -139,-87.25 C-139,-87.25 -139,-87.75 -139,-87.75 C-139,-87.88797760009766 -138.88796997070312,-88 -138.75,-88 C-138.75,-88 138.75,-88 138.75,-88 C138.88796997070312,-88 139,-87.88797760009766 139,-87.75z M139,-52.75 C139,-52.75 139,-52.25 139,-52.25 C139,-52.11202621459961 138.88796997070312,-52 138.75,-52 C138.75,-52 -138.75,-52 -138.75,-52 C-138.88796997070312,-52 -139,-52.11202621459961 -139,-52.25 C-139,-52.25 -139,-52.75 -139,-52.75 C-139,-52.88797378540039 -138.88796997070312,-53 -138.75,-53 C-138.75,-53 138.75,-53 138.75,-53 C138.88796997070312,-53 139,-52.88797378540039 139,-52.75z M139,-17.75 C139,-17.75 139,-17.25 139,-17.25 C139,-17.112024307250977 138.88796997070312,-17 138.75,-17 C138.75,-17 -138.75,-17 -138.75,-17 C-138.88796997070312,-17 -139,-17.112024307250977 -139,-17.25 C-139,-17.25 -139,-17.75 -139,-17.75 C-139,-17.887975692749023 -138.88796997070312,-18 -138.75,-18 C-138.75,-18 138.75,-18 138.75,-18 C138.88796997070312,-18 139,-17.887975692749023 139,-17.75z M139,17.25 C139,17.25 139,17.75 139,17.75 C139,17.887975692749023 138.88796997070312,18 138.75,18 C138.75,18 -138.75,18 -138.75,18 C-138.88796997070312,18 -139,17.887975692749023 -139,17.75 C-139,17.75 -139,17.25 -139,17.25 C-139,17.112024307250977 -138.88796997070312,17 -138.75,17 C-138.75,17 138.75,17 138.75,17 C138.88796997070312,17 139,17.112024307250977 139,17.25z M139,52.25 C139,52.25 139,52.75 139,52.75 C139,52.88797378540039 138.88796997070312,53 138.75,53 C138.75,53 -138.75,53 -138.75,53 C-138.88796997070312,53 -139,52.88797378540039 -139,52.75 C-139,52.75 -139,52.25 -139,52.25 C-139,52.11202621459961 -138.88796997070312,52 -138.75,52 C-138.75,52 138.75,52 138.75,52 C138.88796997070312,52 139,52.11202621459961 139,52.25z"></path></g></g><g transform="matrix(1.029170036315918,0,0,1.058940052986145,164,135.9980010986328)" opacity="1" style="display: block;"><g opacity="1" transform="matrix(1,0,0,1,0,0)"><path stroke-linecap="butt" stroke-linejoin="miter" fill-opacity="0" stroke-miterlimit="4" stroke="rgb(0,102,255)" stroke-opacity="1" stroke-width="6" d=" M-120,70.00199890136719 C-58.5,66.58200073242188 -87.01000213623047,-4.357999801635742 -25.020000457763672,15.001999855041504 C32.619998931884766,33.00199890136719 12.180000305175781,-36.1879997253418 58.5,-26.99799919128418 C104,-17.97800064086914 113,-38.608001708984375 120,-69.99800109863281"></path></g></g><g style="display: block;" transform="matrix(1.399999976158142,0,0,1.399999976158142,287.5,59.5)" opacity="1"><g opacity="1" transform="matrix(1,0,0,1,0,0)"><path fill="rgb(239,126,50)" fill-opacity="1" d=" M0,-7 C3.863300085067749,-7 7,-3.863300085067749 7,0 C7,3.863300085067749 3.863300085067749,7 0,7 C-3.863300085067749,7 -7,3.863300085067749 -7,0 C-7,-3.863300085067749 -3.863300085067749,-7 0,-7z"></path><path stroke-linecap="butt" stroke-linejoin="miter" fill-opacity="0" stroke-miterlimit="4" stroke="rgb(255,255,255)" stroke-opacity="1" stroke-width="4" d=" M0,-7 C3.863300085067749,-7 7,-3.863300085067749 7,0 C7,3.863300085067749 3.863300085067749,7 0,7 C-3.863300085067749,7 -7,3.863300085067749 -7,0 C-7,-3.863300085067749 -3.863300085067749,-7 0,-7z"></path></g></g><g style="display: block;" transform="matrix(1.399999976158142,0,0,1.399999976158142,40,210.5)" opacity="1"><g opacity="1" transform="matrix(1,0,0,1,0,0)"><path fill="rgb(0,102,255)" fill-opacity="1" d=" M0,-7 C3.863300085067749,-7 7,-3.863300085067749 7,0 C7,3.863300085067749 3.863300085067749,7 0,7 C-3.863300085067749,7 -7,3.863300085067749 -7,0 C-7,-3.863300085067749 -3.863300085067749,-7 0,-7z"></path><path stroke-linecap="butt" stroke-linejoin="miter" fill-opacity="0" stroke-miterlimit="4" stroke="rgb(255,255,255)" stroke-opacity="1" stroke-width="4" d=" M0,-7 C3.863300085067749,-7 7,-3.863300085067749 7,0 C7,3.863300085067749 3.863300085067749,7 0,7 C-3.863300085067749,7 -7,3.863300085067749 -7,0 C-7,-3.863300085067749 -3.863300085067749,-7 0,-7z"></path></g></g><g clip-path="url(#__lottie_element_143)" transform="matrix(1.0399999618530273,0,0,1.0399999618530273,7.220001220703125,151.1199951171875)" opacity="1" style="display: block;"><g transform="matrix(1,0,0,1,0,0)" opacity="1" style="display: block;"><g opacity="1" transform="matrix(1,0,0,1,32,22)"><path fill="rgb(255,255,255)" fill-opacity="1" d=" M-31.128000259399414,-17.631999969482422 C-32,-15.920999526977539 -32,-13.680000305175781 -32,-9.199999809265137 C-32,-9.199999809265137 -32,1.2000000476837158 -32,1.2000000476837158 C-32,5.679999828338623 -32,7.921000003814697 -31.128000259399414,9.631999969482422 C-30.361000061035156,11.13700008392334 -29.136999130249023,12.361000061035156 -27.631999969482422,13.128000259399414 C-25.92099952697754,14 -23.68000030517578,14 -19.200000762939453,14 C-19.200000762939453,14 -12,14 -12,14 C-4.61899995803833,14 -4.61899995803833,22 0,22 C4.61899995803833,22 4.61899995803833,14 12,14 C12,14 19.200000762939453,14 19.200000762939453,14 C23.68000030517578,14 25.92099952697754,14 27.631999969482422,13.128000259399414 C29.136999130249023,12.361000061035156 30.361000061035156,11.13700008392334 31.128000259399414,9.631999969482422 C32,7.921000003814697 32,5.679999828338623 32,1.2000000476837158 C32,1.2000000476837158 32,-9.199999809265137 32,-9.199999809265137 C32,-13.680000305175781 32,-15.920999526977539 31.128000259399414,-17.631999969482422 C30.361000061035156,-19.136999130249023 29.136999130249023,-20.361000061035156 27.631999969482422,-21.128000259399414 C25.92099952697754,-22 23.68000030517578,-22 19.200000762939453,-22 C19.200000762939453,-22 -19.200000762939453,-22 -19.200000762939453,-22 C-23.68000030517578,-22 -25.92099952697754,-22 -27.631999969482422,-21.128000259399414 C-29.136999130249023,-20.361000061035156 -30.361000061035156,-19.136999130249023 -31.128000259399414,-17.631999969482422z"></path></g><g opacity="1" transform="matrix(1,0,0,1,32,22)"><path stroke-linecap="butt" stroke-linejoin="miter" fill-opacity="0" stroke-miterlimit="4" stroke="rgb(230,230,230)" stroke-opacity="1" stroke-width="1" d=" M-31.5,-9.199999809265137 C-31.5,-11.449000358581543 -31.5,-13.104999542236328 -31.39299964904785,-14.413999557495117 C-31.285999298095703,-15.717000007629395 -31.07699966430664,-16.631999969482422 -30.683000564575195,-17.405000686645508 C-29.964000701904297,-18.81599998474121 -28.81599998474121,-19.964000701904297 -27.405000686645508,-20.683000564575195 C-26.631999969482422,-21.07699966430664 -25.716999053955078,-21.285999298095703 -24.413999557495117,-21.39299964904785 C-23.104999542236328,-21.5 -21.448999404907227,-21.5 -19.200000762939453,-21.5 C-19.200000762939453,-21.5 19.200000762939453,-21.5 19.200000762939453,-21.5 C21.448999404907227,-21.5 23.104999542236328,-21.5 24.413999557495117,-21.39299964904785 C25.716999053955078,-21.285999298095703 26.631999969482422,-21.07699966430664 27.405000686645508,-20.683000564575195 C28.81599998474121,-19.964000701904297 29.964000701904297,-18.81599998474121 30.68199920654297,-17.405000686645508 C31.07699966430664,-16.631999969482422 31.285999298095703,-15.717000007629395 31.39299964904785,-14.413999557495117 C31.5,-13.104999542236328 31.5,-11.449000358581543 31.5,-9.199999809265137 C31.5,-9.199999809265137 31.5,1.2000000476837158 31.5,1.2000000476837158 C31.5,3.447999954223633 31.5,5.105000019073486 31.39299964904785,6.414000034332275 C31.285999298095703,7.7170000076293945 31.07699966430664,8.630999565124512 30.68199920654297,9.404999732971191 C29.964000701904297,10.815999984741211 28.81599998474121,11.963000297546387 27.405000686645508,12.682000160217285 C26.631999969482422,13.07699966430664 25.716999053955078,13.28600025177002 24.413999557495117,13.392999649047852 C23.104999542236328,13.5 21.448999404907227,13.5 19.200000762939453,13.5 C19.200000762939453,13.5 12,13.5 12,13.5 C10.055000305175781,13.5 8.574000358581543,14.029999732971191 7.38100004196167,14.836000442504883 C6.198999881744385,15.633999824523926 5.322000026702881,16.690000534057617 4.564000129699707,17.700000762939453 C4.379000186920166,17.947999954223633 4.201000213623047,18.19099998474121 4.0289998054504395,18.426000595092773 C3.4830000400543213,19.173999786376953 2.990000009536743,19.850000381469727 2.436000108718872,20.39299964904785 C1.7319999933242798,21.08300018310547 0.984000027179718,21.5 0,21.5 C-0.984000027179718,21.5 -1.7319999933242798,21.08300018310547 -2.436000108718872,20.39299964904785 C-2.990000009536743,19.850000381469727 -3.4830000400543213,19.173999786376953 -4.0289998054504395,18.426000595092773 C-4.201000213623047,18.19099998474121 -4.377999782562256,17.947999954223633 -4.564000129699707,17.700000762939453 C-5.322000026702881,16.690000534057617 -6.198999881744385,15.633999824523926 -7.38100004196167,14.836000442504883 C-8.574000358581543,14.029999732971191 -10.055000305175781,13.5 -12,13.5 C-12,13.5 -19.200000762939453,13.5 -19.200000762939453,13.5 C-21.448999404907227,13.5 -23.104999542236328,13.5 -24.413999557495117,13.392999649047852 C-25.716999053955078,13.28600025177002 -26.631999969482422,13.07699966430664 -27.405000686645508,12.682000160217285 C-28.81599998474121,11.963000297546387 -29.964000701904297,10.815999984741211 -30.683000564575195,9.404999732971191 C-31.07699966430664,8.630999565124512 -31.285999298095703,7.7170000076293945 -31.39299964904785,6.414000034332275 C-31.5,5.105000019073486 -31.5,3.447999954223633 -31.5,1.2000000476837158 C-31.5,1.2000000476837158 -31.5,-9.199999809265137 -31.5,-9.199999809265137z"></path></g></g><g fill="rgb(0,0,0)" font-size="14" font-family="Inter" font-style="normal" font-weight="700" aria-label="Now" transform="matrix(1,0,0,1,32,23)" opacity="1" style="display: block;"><g stroke-linecap="butt" stroke-linejoin="round" stroke-miterlimit="4" transform="matrix(1,0,0,1,-15.303400039672852,0)" opacity="1" style="display: inherit;"><g><g transform="matrix(1,0,0,1,0,0)" opacity="1" style="display: block;"><path d=" M9.26,-10.06 C9.26,-10.06 7.45,-10.06 7.45,-10.06 C7.45,-10.06 7.45,-3.2 7.45,-3.2 C7.45,-3.2 7.36,-3.2 7.36,-3.2 C7.36,-3.2 2.62,-10.06 2.62,-10.06 C2.62,-10.06 0.99,-10.06 0.99,-10.06 C0.99,-10.06 0.99,0 0.99,0 C0.99,0 2.82,0 2.82,0 C2.82,0 2.82,-6.85 2.82,-6.85 C2.82,-6.85 2.9,-6.85 2.9,-6.85 C2.9,-6.85 7.64,0 7.64,0 C7.64,0 9.26,0 9.26,0 C9.26,0 9.26,-10.06 9.26,-10.06z"></path><g opacity="1" transform="matrix(0.14000000059604645,0,0,0.14000000059604645,0,0)"></g></g></g></g><g stroke-linecap="butt" stroke-linejoin="round" stroke-miterlimit="4" transform="matrix(1,0,0,1,-4.932199954986572,0)" opacity="1" style="display: inherit;"><g><g transform="matrix(1,0,0,1,0,0)" opacity="1" style="display: block;"><path d=" M4.22,-1.28 C2.99,-1.28 2.39,-2.37 2.39,-3.75 C2.39,-5.13 2.99,-6.24 4.22,-6.24 C5.42,-6.24 6.02,-5.13 6.02,-3.75 C6.02,-2.37 5.42,-1.28 4.22,-1.28z M4.21,0.15 C6.42,0.15 7.82,-1.41 7.82,-3.74 C7.82,-6.08 6.42,-7.65 4.21,-7.65 C1.99,-7.65 0.59,-6.08 0.59,-3.74 C0.59,-1.41 1.99,0.15 4.21,0.15z"></path><g opacity="1" transform="matrix(0.14000000059604645,0,0,0.14000000059604645,0,0)"></g></g></g></g><g stroke-linecap="butt" stroke-linejoin="round" stroke-miterlimit="4" transform="matrix(1,0,0,1,3.5797994136810303,0)" opacity="1" style="display: inherit;"><g><g transform="matrix(1,0,0,1,0,0)" opacity="1" style="display: block;"><path d=" M2.47,0 C2.47,0 4.33,0 4.33,0 C4.33,0 5.74,-5.1 5.74,-5.1 C5.74,-5.1 5.85,-5.1 5.85,-5.1 C5.85,-5.1 7.26,0 7.26,0 C7.26,0 9.11,0 9.11,0 C9.11,0 11.25,-7.55 11.25,-7.55 C11.25,-7.55 9.43,-7.55 9.43,-7.55 C9.43,-7.55 8.13,-2.27 8.13,-2.27 C8.13,-2.27 8.05,-2.27 8.05,-2.27 C8.05,-2.27 6.7,-7.55 6.7,-7.55 C6.7,-7.55 4.9,-7.55 4.9,-7.55 C4.9,-7.55 3.55,-2.24 3.55,-2.24 C3.55,-2.24 3.48,-2.24 3.48,-2.24 C3.48,-2.24 2.15,-7.55 2.15,-7.55 C2.15,-7.55 0.34,-7.55 0.34,-7.55 C0.34,-7.55 2.47,0 2.47,0z"></path><g opacity="1" transform="matrix(0.14000000059604645,0,0,0.14000000059604645,0,0)"></g></g></g></g></g></g><g clip-path="url(#__lottie_element_133)" transform="matrix(1,0,0,1,255.5,1.5)" opacity="1" style="display: block;"><g transform="matrix(1,0,0,1,32,22)" opacity="1" style="display: block;"><g opacity="1" transform="matrix(1,0,0,1,0.24899999797344208,0.17599999904632568)"><path fill="rgb(255,136,51)" fill-opacity="1" d=" M-12,14 C-12,14 -21.739999771118164,14 -21.739999771118164,14 C-21.739999771118164,14 -22.450000762939453,13.989999771118164 -22.450000762939453,13.989999771118164 C-25.489999771118164,13.949999809265137 -26.690000534057617,13.579999923706055 -27.90999984741211,12.930000305175781 C-29.209999084472656,12.229999542236328 -30.229999542236328,11.210000038146973 -30.93000030517578,9.90999984741211 C-30.93000030517578,9.90999984741211 -31.06999969482422,9.640000343322754 -31.06999969482422,9.640000343322754 C-31.65999984741211,8.460000038146973 -31.979999542236328,7.159999847412109 -32,4.110000133514404 C-32,4.110000133514404 -32,-11.739999771118164 -32,-11.739999771118164 C-32,-15.3100004196167 -31.6299991607666,-16.600000381469727 -30.93000030517578,-17.90999984741211 C-30.229999542236328,-19.209999084472656 -29.209999084472656,-20.229999542236328 -27.90999984741211,-20.93000030517578 C-27.90999984741211,-20.93000030517578 -27.639999389648438,-21.06999969482422 -27.639999389648438,-21.06999969482422 C-26.459999084472656,-21.65999984741211 -25.15999984741211,-21.979999542236328 -22.110000610351562,-22 C-22.110000610351562,-22 21.739999771118164,-22 21.739999771118164,-22 C25.309999465942383,-22 26.600000381469727,-21.6299991607666 27.90999984741211,-20.93000030517578 C29.209999084472656,-20.229999542236328 30.229999542236328,-19.209999084472656 30.93000030517578,-17.90999984741211 C30.93000030517578,-17.90999984741211 31.06999969482422,-17.639999389648438 31.06999969482422,-17.639999389648438 C31.68000030517578,-16.40999984741211 32,-15.0600004196167 32,-11.739999771118164 C32,-11.739999771118164 32,3.740000009536743 32,3.740000009536743 C32,3.740000009536743 31.989999771118164,4.449999809265137 31.989999771118164,4.449999809265137 C31.950000762939453,7.489999771118164 31.579999923706055,8.6899995803833 30.93000030517578,9.90999984741211 C30.229999542236328,11.210000038146973 29.209999084472656,12.229999542236328 27.90999984741211,12.930000305175781 C27.90999984741211,12.930000305175781 27.639999389648438,13.069999694824219 27.639999389648438,13.069999694824219 C26.40999984741211,13.680000305175781 25.059999465942383,14 21.739999771118164,14 C21.739999771118164,14 12,14 12,14 C4.619999885559082,14 4.619999885559082,22 0,22 C-4.619999885559082,22 -4.619999885559082,14 -12,14z"></path></g></g><g fill="rgb(255,255,255)" font-size="10" font-family="Inter" font-style="normal" font-weight="700" aria-label="30 lessons
per month" transform="matrix(1,0,0,1,31.75,15.5)" opacity="1" style="display: block;"><g stroke-linecap="butt" stroke-linejoin="round" stroke-miterlimit="4" transform="matrix(1,0,0,1,-26.423999786376953,0)" opacity="1" style="display: inherit;"><g><g transform="matrix(1,0,0,1,0,0)" opacity="1" style="display: block;"><path d=" M3.22,0.1 C4.76,0.1 5.87,-0.78 5.87,-2 C5.87,-2.9 5.31,-3.54 4.31,-3.68 C4.31,-3.68 4.31,-3.74 4.31,-3.74 C5.09,-3.91 5.61,-4.49 5.6,-5.3 C5.61,-6.39 4.67,-7.29 3.24,-7.29 C1.84,-7.29 0.76,-6.45 0.73,-5.25 C0.73,-5.25 1.99,-5.25 1.99,-5.25 C2.01,-5.85 2.57,-6.23 3.23,-6.23 C3.9,-6.23 4.35,-5.82 4.34,-5.22 C4.35,-4.59 3.83,-4.17 3.08,-4.17 C3.08,-4.17 2.45,-4.17 2.45,-4.17 C2.45,-4.17 2.45,-3.17 2.45,-3.17 C2.45,-3.17 3.08,-3.17 3.08,-3.17 C3.99,-3.17 4.53,-2.71 4.53,-2.06 C4.53,-1.43 3.98,-0.99 3.21,-0.99 C2.49,-0.99 1.93,-1.37 1.9,-1.95 C1.9,-1.95 0.58,-1.95 0.58,-1.95 C0.62,-0.74 1.7,0.1 3.22,0.1z"></path><g opacity="1" transform="matrix(0.10000000149011612,0,0,0.10000000149011612,0,0)"></g></g></g></g><g stroke-linecap="butt" stroke-linejoin="round" stroke-miterlimit="4" transform="matrix(1,0,0,1,-19.908000946044922,0)" opacity="1" style="display: inherit;"><g><g transform="matrix(1,0,0,1,0,0)" opacity="1" style="display: block;"><path d=" M3.3,-0.96 C2.4,-0.96 1.84,-1.86 1.84,-3.59 C1.85,-5.3 2.4,-6.2 3.3,-6.2 C4.19,-6.2 4.75,-5.3 4.75,-3.59 C4.75,-1.86 4.19,-0.96 3.3,-0.96z M3.3,0.14 C5.03,0.14 6.06,-1.23 6.06,-3.59 C6.06,-5.93 5.02,-7.29 3.3,-7.29 C1.57,-7.29 0.53,-5.93 0.53,-3.59 C0.53,-1.23 1.56,0.14 3.3,0.14z"></path><g opacity="1" transform="matrix(0.10000000149011612,0,0,0.10000000149011612,0,0)"></g></g></g></g><g stroke-linecap="butt" stroke-linejoin="round" stroke-miterlimit="4" transform="matrix(1,0,0,1,-13.238999366760254,0)" opacity="1" style="display: inherit;"><g><g style="display: none;"></g></g></g><g stroke-linecap="butt" stroke-linejoin="round" stroke-miterlimit="4" transform="matrix(1,0,0,1,-10.756999969482422,0)" opacity="1" style="display: inherit;"><g><g transform="matrix(1,0,0,1,0,0)" opacity="1" style="display: block;"><path d=" M1.92,-7.19 C1.92,-7.19 0.65,-7.19 0.65,-7.19 C0.65,-7.19 0.65,0 0.65,0 C0.65,0 1.92,0 1.92,0 C1.92,0 1.92,-7.19 1.92,-7.19z"></path><g opacity="1" transform="matrix(0.10000000149011612,0,0,0.10000000149011612,0,0)"></g></g></g></g><g stroke-linecap="butt" stroke-linejoin="round" stroke-miterlimit="4" transform="matrix(1,0,0,1,-8.149999618530273,0)" opacity="1" style="display: inherit;"><g><g transform="matrix(1,0,0,1,0,0)" opacity="1" style="display: block;"><path d=" M1.68,-3.2 C1.72,-3.89 2.23,-4.47 2.99,-4.47 C3.72,-4.47 4.21,-3.94 4.22,-3.2 C4.22,-3.2 1.68,-3.2 1.68,-3.2z M3.04,0.11 C4.3,0.11 5.16,-0.51 5.38,-1.45 C5.38,-1.45 4.2,-1.58 4.2,-1.58 C4.03,-1.12 3.6,-0.88 3.06,-0.88 C2.24,-0.88 1.69,-1.42 1.68,-2.35 C1.68,-2.35 5.44,-2.35 5.44,-2.35 C5.44,-2.35 5.44,-2.74 5.44,-2.74 C5.44,-4.63 4.3,-5.46 2.97,-5.46 C1.43,-5.46 0.42,-4.33 0.42,-2.66 C0.42,-0.97 1.41,0.11 3.04,0.11z"></path><g opacity="1" transform="matrix(0.10000000149011612,0,0,0.10000000149011612,0,0)"></g></g></g></g><g stroke-linecap="butt" stroke-linejoin="round" stroke-miterlimit="4" transform="matrix(1,0,0,1,-2.2230005264282227,0)" opacity="1" style="display: inherit;"><g><g transform="matrix(1,0,0,1,0,0)" opacity="1" style="display: block;"><path d=" M4.91,-3.97 C4.74,-4.88 4.01,-5.46 2.74,-5.46 C1.45,-5.46 0.56,-4.82 0.57,-3.83 C0.56,-3.04 1.05,-2.52 2.08,-2.31 C2.08,-2.31 3,-2.11 3,-2.11 C3.5,-2 3.73,-1.8 3.73,-1.5 C3.73,-1.13 3.33,-0.85 2.72,-0.85 C2.14,-0.85 1.76,-1.11 1.65,-1.59 C1.65,-1.59 0.41,-1.47 0.41,-1.47 C0.57,-0.48 1.4,0.11 2.73,0.11 C4.07,0.11 5.03,-0.59 5.03,-1.61 C5.03,-2.38 4.53,-2.85 3.51,-3.07 C3.51,-3.07 2.59,-3.27 2.59,-3.27 C2.05,-3.39 1.83,-3.58 1.83,-3.9 C1.83,-4.26 2.23,-4.51 2.76,-4.51 C3.35,-4.51 3.66,-4.19 3.76,-3.84 C3.76,-3.84 4.91,-3.97 4.91,-3.97z"></path><g opacity="1" transform="matrix(0.10000000149011612,0,0,0.10000000149011612,0,0)"></g></g></g></g><g stroke-linecap="butt" stroke-linejoin="round" stroke-miterlimit="4" transform="matrix(1,0,0,1,3.267000913619995,0)" opacity="1" style="display: inherit;"><g><g transform="matrix(1,0,0,1,0,0)" opacity="1" style="display: block;"><path d=" M4.91,-3.97 C4.74,-4.88 4.01,-5.46 2.74,-5.46 C1.45,-5.46 0.56,-4.82 0.57,-3.83 C0.56,-3.04 1.05,-2.52 2.08,-2.31 C2.08,-2.31 3,-2.11 3,-2.11 C3.5,-2 3.73,-1.8 3.73,-1.5 C3.73,-1.13 3.33,-0.85 2.72,-0.85 C2.14,-0.85 1.76,-1.11 1.65,-1.59 C1.65,-1.59 0.41,-1.47 0.41,-1.47 C0.57,-0.48 1.4,0.11 2.73,0.11 C4.07,0.11 5.03,-0.59 5.03,-1.61 C5.03,-2.38 4.53,-2.85 3.51,-3.07 C3.51,-3.07 2.59,-3.27 2.59,-3.27 C2.05,-3.39 1.83,-3.58 1.83,-3.9 C1.83,-4.26 2.23,-4.51 2.76,-4.51 C3.35,-4.51 3.66,-4.19 3.76,-3.84 C3.76,-3.84 4.91,-3.97 4.91,-3.97z"></path><g opacity="1" transform="matrix(0.10000000149011612,0,0,0.10000000149011612,0,0)"></g></g></g></g><g stroke-linecap="butt" stroke-linejoin="round" stroke-miterlimit="4" transform="matrix(1,0,0,1,8.756999015808105,0)" opacity="1" style="display: inherit;"><g><g transform="matrix(1,0,0,1,0,0)" opacity="1" style="display: block;"><path d=" M3.01,-0.91 C2.14,-0.91 1.71,-1.69 1.71,-2.68 C1.71,-3.66 2.14,-4.45 3.01,-4.45 C3.87,-4.45 4.3,-3.66 4.3,-2.68 C4.3,-1.69 3.87,-0.91 3.01,-0.91z M3,0.11 C4.58,0.11 5.59,-1.01 5.59,-2.67 C5.59,-4.34 4.58,-5.46 3,-5.46 C1.42,-5.46 0.42,-4.34 0.42,-2.67 C0.42,-1.01 1.42,0.11 3,0.11z"></path><g opacity="1" transform="matrix(0.10000000149011612,0,0,0.10000000149011612,0,0)"></g></g></g></g><g stroke-linecap="butt" stroke-linejoin="round" stroke-miterlimit="4" transform="matrix(1,0,0,1,14.83700180053711,0)" opacity="1" style="display: inherit;"><g><g transform="matrix(1,0,0,1,0,0)" opacity="1" style="display: block;"><path d=" M1.92,-3.16 C1.92,-3.94 2.39,-4.39 3.06,-4.39 C3.72,-4.39 4.11,-3.96 4.11,-3.24 C4.11,-3.24 4.11,0 4.11,0 C4.11,0 5.38,0 5.38,0 C5.38,0 5.38,-3.43 5.38,-3.43 C5.39,-4.72 4.65,-5.46 3.54,-5.46 C2.73,-5.46 2.18,-5.07 1.93,-4.47 C1.93,-4.47 1.87,-4.47 1.87,-4.47 C1.87,-4.47 1.87,-5.39 1.87,-5.39 C1.87,-5.39 0.65,-5.39 0.65,-5.39 C0.65,-5.39 0.65,0 0.65,0 C0.65,0 1.92,0 1.92,0 C1.92,0 1.92,-3.16 1.92,-3.16z"></path><g opacity="1" transform="matrix(0.10000000149011612,0,0,0.10000000149011612,0,0)"></g></g></g></g><g stroke-linecap="butt" stroke-linejoin="round" stroke-miterlimit="4" transform="matrix(1,0,0,1,20.93400001525879,0)" opacity="1" style="display: inherit;"><g><g transform="matrix(1,0,0,1,0,0)" opacity="1" style="display: block;"><path d=" M4.91,-3.97 C4.74,-4.88 4.01,-5.46 2.74,-5.46 C1.45,-5.46 0.56,-4.82 0.57,-3.83 C0.56,-3.04 1.05,-2.52 2.08,-2.31 C2.08,-2.31 3,-2.11 3,-2.11 C3.5,-2 3.73,-1.8 3.73,-1.5 C3.73,-1.13 3.33,-0.85 2.72,-0.85 C2.14,-0.85 1.76,-1.11 1.65,-1.59 C1.65,-1.59 0.41,-1.47 0.41,-1.47 C0.57,-0.48 1.4,0.11 2.73,0.11 C4.07,0.11 5.03,-0.59 5.03,-1.61 C5.03,-2.38 4.53,-2.85 3.51,-3.07 C3.51,-3.07 2.59,-3.27 2.59,-3.27 C2.05,-3.39 1.83,-3.58 1.83,-3.9 C1.83,-4.26 2.23,-4.51 2.76,-4.51 C3.35,-4.51 3.66,-4.19 3.76,-3.84 C3.76,-3.84 4.91,-3.97 4.91,-3.97z"></path><g opacity="1" transform="matrix(0.10000000149011612,0,0,0.10000000149011612,0,0)"></g></g></g></g><g stroke-linecap="butt" stroke-linejoin="round" stroke-miterlimit="4" style="display: inherit;"><g><g style="display: none;"></g></g></g><g stroke-linecap="butt" stroke-linejoin="round" stroke-miterlimit="4" transform="matrix(1,0,0,1,-24.852500915527344,11)" opacity="1" style="display: inherit;"><g><g transform="matrix(1,0,0,1,0,0)" opacity="1" style="display: block;"><path d=" M1.9,-2.7 C1.9,-3.74 2.35,-4.42 3.17,-4.42 C4.01,-4.42 4.45,-3.7 4.45,-2.7 C4.45,-1.68 4,-0.95 3.17,-0.95 C2.35,-0.95 1.9,-1.65 1.9,-2.7z M0.65,2.02 C0.65,2.02 1.92,2.02 1.92,2.02 C1.92,2.02 1.92,-0.85 1.92,-0.85 C1.92,-0.85 1.98,-0.85 1.98,-0.85 C2.18,-0.46 2.59,0.09 3.52,0.09 C4.79,0.09 5.74,-0.91 5.74,-2.69 C5.74,-4.49 4.76,-5.46 3.52,-5.46 C2.57,-5.46 2.17,-4.89 1.98,-4.5 C1.98,-4.5 1.9,-4.5 1.9,-4.5 C1.9,-4.5 1.9,-5.39 1.9,-5.39 C1.9,-5.39 0.65,-5.39 0.65,-5.39 C0.65,-5.39 0.65,2.02 0.65,2.02z"></path><g opacity="1" transform="matrix(0.10000000149011612,0,0,0.10000000149011612,0,0)"></g></g></g></g><g stroke-linecap="butt" stroke-linejoin="round" stroke-miterlimit="4" transform="matrix(1,0,0,1,-18.60650062561035,11)" opacity="1" style="display: inherit;"><g><g transform="matrix(1,0,0,1,0,0)" opacity="1" style="display: block;"><path d=" M1.68,-3.2 C1.72,-3.89 2.23,-4.47 2.99,-4.47 C3.72,-4.47 4.21,-3.94 4.22,-3.2 C4.22,-3.2 1.68,-3.2 1.68,-3.2z M3.04,0.11 C4.3,0.11 5.16,-0.51 5.38,-1.45 C5.38,-1.45 4.2,-1.58 4.2,-1.58 C4.03,-1.12 3.6,-0.88 3.06,-0.88 C2.24,-0.88 1.69,-1.42 1.68,-2.35 C1.68,-2.35 5.44,-2.35 5.44,-2.35 C5.44,-2.35 5.44,-2.74 5.44,-2.74 C5.44,-4.63 4.3,-5.46 2.97,-5.46 C1.43,-5.46 0.42,-4.33 0.42,-2.66 C0.42,-0.97 1.41,0.11 3.04,0.11z"></path><g opacity="1" transform="matrix(0.10000000149011612,0,0,0.10000000149011612,0,0)"></g></g></g></g><g stroke-linecap="butt" stroke-linejoin="round" stroke-miterlimit="4" transform="matrix(1,0,0,1,-12.679500579833984,11)" opacity="1" style="display: inherit;"><g><g transform="matrix(1,0,0,1,0,0)" opacity="1" style="display: block;"><path d=" M0.65,0 C0.65,0 1.92,0 1.92,0 C1.92,0 1.92,-3.17 1.92,-3.17 C1.92,-3.85 2.44,-4.34 3.14,-4.34 C3.35,-4.34 3.62,-4.3 3.73,-4.26 C3.73,-4.26 3.73,-5.43 3.73,-5.43 C3.61,-5.45 3.41,-5.47 3.27,-5.47 C2.65,-5.47 2.14,-5.12 1.94,-4.49 C1.94,-4.49 1.88,-4.49 1.88,-4.49 C1.88,-4.49 1.88,-5.39 1.88,-5.39 C1.88,-5.39 0.65,-5.39 0.65,-5.39 C0.65,-5.39 0.65,0 0.65,0z"></path><g opacity="1" transform="matrix(0.10000000149011612,0,0,0.10000000149011612,0,0)"></g></g></g></g><g stroke-linecap="butt" stroke-linejoin="round" stroke-miterlimit="4" transform="matrix(1,0,0,1,-8.712499618530273,11)" opacity="1" style="display: inherit;"><g><g style="display: none;"></g></g></g><g stroke-linecap="butt" stroke-linejoin="round" stroke-miterlimit="4" transform="matrix(1,0,0,1,-6.230499744415283,11)" opacity="1" style="display: inherit;"><g><g transform="matrix(1,0,0,1,0,0)" opacity="1" style="display: block;"><path d=" M0.65,0 C0.65,0 1.92,0 1.92,0 C1.92,0 1.92,-3.28 1.92,-3.28 C1.92,-3.94 2.37,-4.39 2.91,-4.39 C3.45,-4.39 3.82,-4.03 3.82,-3.47 C3.82,-3.47 3.82,0 3.82,0 C3.82,0 5.06,0 5.06,0 C5.06,0 5.06,-3.36 5.06,-3.36 C5.06,-3.97 5.43,-4.39 6.04,-4.39 C6.55,-4.39 6.96,-4.09 6.96,-3.42 C6.96,-3.42 6.96,0 6.96,0 C6.96,0 8.23,0 8.23,0 C8.23,0 8.23,-3.62 8.23,-3.62 C8.23,-4.82 7.54,-5.46 6.55,-5.46 C5.77,-5.46 5.17,-5.07 4.93,-4.47 C4.93,-4.47 4.87,-4.47 4.87,-4.47 C4.67,-5.09 4.14,-5.46 3.42,-5.46 C2.7,-5.46 2.15,-5.09 1.93,-4.47 C1.93,-4.47 1.87,-4.47 1.87,-4.47 C1.87,-4.47 1.87,-5.39 1.87,-5.39 C1.87,-5.39 0.65,-5.39 0.65,-5.39 C0.65,-5.39 0.65,0 0.65,0z"></path><g opacity="1" transform="matrix(0.10000000149011612,0,0,0.10000000149011612,0,0)"></g></g></g></g><g stroke-linecap="butt" stroke-linejoin="round" stroke-miterlimit="4" transform="matrix(1,0,0,1,2.746500015258789,11)" opacity="1" style="display: inherit;"><g><g transform="matrix(1,0,0,1,0,0)" opacity="1" style="display: block;"><path d=" M3.01,-0.91 C2.14,-0.91 1.71,-1.69 1.71,-2.68 C1.71,-3.66 2.14,-4.45 3.01,-4.45 C3.87,-4.45 4.3,-3.66 4.3,-2.68 C4.3,-1.69 3.87,-0.91 3.01,-0.91z M3,0.11 C4.58,0.11 5.59,-1.01 5.59,-2.67 C5.59,-4.34 4.58,-5.46 3,-5.46 C1.42,-5.46 0.42,-4.34 0.42,-2.67 C0.42,-1.01 1.42,0.11 3,0.11z"></path><g opacity="1" transform="matrix(0.10000000149011612,0,0,0.10000000149011612,0,0)"></g></g></g></g><g stroke-linecap="butt" stroke-linejoin="round" stroke-miterlimit="4" transform="matrix(1,0,0,1,8.82650089263916,11)" opacity="1" style="display: inherit;"><g><g transform="matrix(1,0,0,1,0,0)" opacity="1" style="display: block;"><path d=" M1.92,-3.16 C1.92,-3.94 2.39,-4.39 3.06,-4.39 C3.72,-4.39 4.11,-3.96 4.11,-3.24 C4.11,-3.24 4.11,0 4.11,0 C4.11,0 5.38,0 5.38,0 C5.38,0 5.38,-3.43 5.38,-3.43 C5.39,-4.72 4.65,-5.46 3.54,-5.46 C2.73,-5.46 2.18,-5.07 1.93,-4.47 C1.93,-4.47 1.87,-4.47 1.87,-4.47 C1.87,-4.47 1.87,-5.39 1.87,-5.39 C1.87,-5.39 0.65,-5.39 0.65,-5.39 C0.65,-5.39 0.65,0 0.65,0 C0.65,0 1.92,0 1.92,0 C1.92,0 1.92,-3.16 1.92,-3.16z"></path><g opacity="1" transform="matrix(0.10000000149011612,0,0,0.10000000149011612,0,0)"></g></g></g></g><g stroke-linecap="butt" stroke-linejoin="round" stroke-miterlimit="4" transform="matrix(1,0,0,1,14.92349910736084,11)" opacity="1" style="display: inherit;"><g><g transform="matrix(1,0,0,1,0,0)" opacity="1" style="display: block;"><path d=" M3.34,-5.39 C3.34,-5.39 2.28,-5.39 2.28,-5.39 C2.28,-5.39 2.28,-6.68 2.28,-6.68 C2.28,-6.68 1.01,-6.68 1.01,-6.68 C1.01,-6.68 1.01,-5.39 1.01,-5.39 C1.01,-5.39 0.25,-5.39 0.25,-5.39 C0.25,-5.39 0.25,-4.41 0.25,-4.41 C0.25,-4.41 1.01,-4.41 1.01,-4.41 C1.01,-4.41 1.01,-1.41 1.01,-1.41 C1,-0.4 1.74,0.1 2.7,0.07 C3.06,0.06 3.31,-0.01 3.44,-0.05 C3.44,-0.05 3.23,-1.05 3.23,-1.05 C3.16,-1.03 3.01,-1 2.86,-1 C2.54,-1 2.28,-1.11 2.28,-1.62 C2.28,-1.62 2.28,-4.41 2.28,-4.41 C2.28,-4.41 3.34,-4.41 3.34,-4.41 C3.34,-4.41 3.34,-5.39 3.34,-5.39z"></path><g opacity="1" transform="matrix(0.10000000149011612,0,0,0.10000000149011612,0,0)"></g></g></g></g><g stroke-linecap="butt" stroke-linejoin="round" stroke-miterlimit="4" transform="matrix(1,0,0,1,18.723501205444336,11)" opacity="1" style="display: inherit;"><g><g transform="matrix(1,0,0,1,0,0)" opacity="1" style="display: block;"><path d=" M1.92,-3.16 C1.92,-3.94 2.41,-4.39 3.09,-4.39 C3.76,-4.39 4.15,-3.96 4.15,-3.24 C4.15,-3.24 4.15,0 4.15,0 C4.15,0 5.42,0 5.42,0 C5.42,0 5.42,-3.43 5.42,-3.43 C5.42,-4.73 4.68,-5.46 3.56,-5.46 C2.73,-5.46 2.21,-5.09 1.96,-4.47 C1.96,-4.47 1.9,-4.47 1.9,-4.47 C1.9,-4.47 1.9,-7.19 1.9,-7.19 C1.9,-7.19 0.65,-7.19 0.65,-7.19 C0.65,-7.19 0.65,0 0.65,0 C0.65,0 1.92,0 1.92,0 C1.92,0 1.92,-3.16 1.92,-3.16z"></path><g opacity="1" transform="matrix(0.10000000149011612,0,0,0.10000000149011612,0,0)"></g></g></g></g></g></g><g fill="rgb(0,0,0)" stroke="rgb(0,0,0)" stroke-width="0.00999999977648" font-size="11.5" font-family="Inter" font-style="normal" font-weight="400" aria-label="" transform="matrix(1,0,0,1,8,24)" opacity="0.4" style="display: block;"></g></g></svg>