<?xml version="1.0" encoding="utf-8"?>
<svg viewBox="-77.303 -152.546 803.029 679.344" xmlns="http://www.w3.org/2000/svg">
  <path d="M 715.172 326.425 L 676.882 7.225 C 666.582 -78.715 593.532 -143.545 506.962 -143.545 L 141.252 -143.545 C 54.682 -143.545 -18.368 -78.715 -28.668 7.225 L -66.918 326.425 C -72.738 374.975 -57.478 423.805 -25.008 460.375 C 7.422 496.975 54.092 517.935 103.002 517.935 L 545.252 517.935 C 594.122 517.935 640.792 496.975 673.262 460.375 C 705.692 423.815 720.992 374.985 715.172 326.425 Z M 610.282 404.905 C 592.902 424.485 568.922 435.255 542.782 435.255 L 105.482 435.255 C 79.302 435.255 55.312 424.485 37.982 404.905 C 20.602 385.325 12.782 360.245 15.882 334.255 L 53.702 18.635 C 59.132 -26.655 97.652 -60.865 143.302 -60.865 L 504.922 -60.865 C 550.562 -60.865 589.092 -26.665 594.522 18.635 L 632.382 334.255 C 635.482 360.245 627.612 385.325 610.282 404.905 Z" fill="#004956"/>
  <path d="M 543.842 87.445 C 537.822 78.215 528.572 71.885 517.792 69.615 C 506.992 67.345 495.992 69.415 486.762 75.425 C 376.652 147.235 269.492 147.225 159.172 75.415 C 149.942 69.405 138.912 67.335 128.142 69.625 C 117.362 71.905 108.122 78.245 102.112 87.475 C 96.102 96.705 94.042 107.725 96.322 118.505 C 98.602 129.285 104.942 138.525 114.172 144.535 C 183.112 189.415 253.392 212.165 323.062 212.165 C 392.742 212.165 462.972 189.405 531.812 144.515 C 541.042 138.495 547.372 129.245 549.642 118.465 C 551.922 107.695 549.862 96.675 543.842 87.445 Z" fill="#004956"/>
</svg>