<?xml version="1.0" encoding="utf-8"?>
<svg viewBox="-234.379 -135.631 921.169 835.508" xmlns="http://www.w3.org/2000/svg" xmlns:bx="https://boxy-svg.com">
  <path d="M 35.218 230.606 H 35.218 A 0.595 0.595 0 0 1 35.813 231.201 V 231.201 A 0.595 0.595 0 0 1 35.218 231.796 H 35.218 A 0.595 0.595 0 0 1 34.623 231.201 V 231.201 A 0.595 0.595 0 0 1 35.218 230.606 Z M 35.218 231.201 V 231.201 H 35.218 V 231.201 H 35.218 Z" style="fill: #fff; stroke: rgb(0, 0, 0);" transform="matrix(1, 0, 0, 1, 0, -5.684341886080802e-14)" bx:shape="frame 34.623 230.606 1.19 1.19 35.692 35.692 35.692 35.692 35.692 35.692 1@2144daea"/>
  <path d="M 613.648 418.616 L 575.358 99.416 C 565.058 13.476 492.008 -51.354 405.438 -51.354 L 39.728 -51.354 C -46.842 -51.354 -119.892 13.476 -130.192 99.416 L -168.442 418.616 C -174.262 467.166 -159.002 515.996 -126.532 552.566 C -94.102 589.166 -47.432 610.126 1.478 610.126 L 443.728 610.126 C 492.598 610.126 539.268 589.166 571.738 552.566 C 604.168 516.006 619.468 467.176 613.648 418.616 Z M 508.758 497.096 C 491.378 516.676 467.398 527.446 441.258 527.446 L 3.958 527.446 C -22.222 527.446 -46.212 516.676 -63.542 497.096 C -80.922 477.516 -88.742 452.436 -85.642 426.446 L -47.822 110.826 C -42.392 65.536 -3.872 31.326 41.778 31.326 L 403.398 31.326 C 449.038 31.326 487.568 65.526 492.998 110.826 L 530.858 426.446 C 533.958 452.436 526.088 477.516 508.758 497.096 Z" fill="#fff" transform="matrix(1, 0, 0, 1, 0, -5.684341886080802e-14)"/>
  <path d="M 443.508 137.257 C 437.488 128.027 428.238 121.697 417.458 119.427 C 406.658 117.157 395.658 119.227 386.428 125.237 C 276.318 197.047 169.158 197.037 58.838 125.227 C 49.608 119.217 38.578 117.147 27.808 119.437 C 17.028 121.717 7.788 128.057 1.778 137.287 C -4.232 146.517 -6.292 157.537 -4.012 168.317 C -1.732 179.097 4.608 188.337 13.838 194.347 C 82.778 239.227 153.058 261.977 222.728 261.977 C 292.408 261.977 362.638 239.217 431.478 194.327 C 440.708 188.307 447.038 179.057 449.308 168.277 C 451.588 157.507 449.528 146.487 443.508 137.257 Z" fill="#fff" transform="matrix(1, 0, 0, 1, 0, -5.684341886080802e-14)"/>
</svg>