<?xml version="1.0" encoding="utf-8"?>
<svg viewBox="-77.303 -152.546 803.029 679.344" xmlns="http://www.w3.org/2000/svg">
  <rect x="5.544" y="-66.063" width="632.859" height="504.019" style="stroke: rgb(0, 0, 0); fill: rgb(242, 113, 3);"/>
  <path d="M 715.172 326.425 L 676.882 7.225 C 666.582 -78.715 593.532 -143.545 506.962 -143.545 L 141.252 -143.545 C 54.682 -143.545 -18.368 -78.715 -28.668 7.225 L -66.918 326.425 C -72.738 374.975 -57.478 423.805 -25.008 460.375 C 7.422 496.975 54.092 517.935 103.002 517.935 L 545.252 517.935 C 594.122 517.935 640.792 496.975 673.262 460.375 C 705.692 423.815 720.992 374.985 715.172 326.425 Z M 610.282 404.905 C 592.902 424.485 568.922 435.255 542.782 435.255 L 105.482 435.255 C 79.302 435.255 55.312 424.485 37.982 404.905 C 20.602 385.325 12.782 360.245 15.882 334.255 L 53.702 18.635 C 59.132 -26.655 97.652 -60.865 143.302 -60.865 L 504.922 -60.865 C 550.562 -60.865 589.092 -26.665 594.522 18.635 L 632.382 334.255 C 635.482 360.245 627.612 385.325 610.282 404.905 Z" style="fill: rgb(242, 113, 3);"/>
</svg>