<?xml version="1.0" encoding="utf-8"?>
<svg viewBox="-77.303 -152.546 803.029 679.344" xmlns="http://www.w3.org/2000/svg">
  <path d="M 715.172 326.425 L 676.882 7.225 C 666.582 -78.715 593.532 -143.545 506.962 -143.545 L 141.252 -143.545 C 54.682 -143.545 -18.368 -78.715 -28.668 7.225 L -66.918 326.425 C -72.738 374.975 -57.478 423.805 -25.008 460.375 C 7.422 496.975 54.092 517.935 103.002 517.935 L 545.252 517.935 C 594.122 517.935 640.792 496.975 673.262 460.375 C 705.692 423.815 720.992 374.985 715.172 326.425 Z M 610.282 404.905 C 592.902 424.485 568.922 435.255 542.782 435.255 L 105.482 435.255 C 79.302 435.255 55.312 424.485 37.982 404.905 C 20.602 385.325 12.782 360.245 15.882 334.255 L 53.702 18.635 C 59.132 -26.655 97.652 -60.865 143.302 -60.865 L 504.922 -60.865 C 550.562 -60.865 589.092 -26.665 594.522 18.635 L 632.382 334.255 C 635.482 360.245 627.612 385.325 610.282 404.905 Z" fill="#f27103"/>
  <path d="M 543.842 47.445 C 537.822 38.215 528.572 31.885 517.792 29.615 C 506.992 27.345 495.992 29.415 486.762 35.425 C 376.652 107.235 269.492 107.225 159.172 35.415 C 149.942 29.405 138.912 27.335 128.142 29.625 C 117.362 31.905 108.122 38.245 102.112 47.475 C 96.102 56.705 94.042 67.725 96.322 78.505 C 98.602 89.285 104.942 98.525 114.172 104.535 C 183.112 149.415 253.392 172.165 323.062 172.165 C 392.742 172.165 462.972 149.405 531.812 104.515 C 541.042 98.495 547.372 89.245 549.642 78.465 C 551.922 67.695 549.862 56.675 543.842 47.445 Z" fill="#f27103"/>
</svg>